<svg width="955" height="463" viewBox="0 0 955 463" fill="none" xmlns="http://www.w3.org/2000/svg">
<mask id="mask0_22_29" style="mask-type:alpha" maskUnits="userSpaceOnUse" x="-1" y="-3" width="956" height="466">
<line y1="188.06" x2="955" y2="188.06" stroke="url(#paint0_linear_22_29)"/>
<line y1="462.401" x2="955" y2="462.401" stroke="url(#paint1_linear_22_29)"/>
<line y1="325.23" x2="955" y2="325.23" stroke="url(#paint2_linear_22_29)"/>
<line y1="50.8894" x2="955" y2="50.8894" stroke="url(#paint3_linear_22_29)"/>
<line x1="818.071" y1="463" x2="818.071" y2="-2.10712" stroke="url(#paint4_linear_22_29)"/>
<line x1="408.786" y1="463" x2="408.786" y2="-2.10712" stroke="url(#paint5_linear_22_29)"/>
<line x1="272.357" y1="463" x2="272.357" y2="-2.10712" stroke="url(#paint6_linear_22_29)"/>
<line x1="545.214" y1="463" x2="545.214" y2="-2.10712" stroke="url(#paint7_linear_22_29)"/>
<line x1="135.929" y1="463" x2="135.929" y2="-2.10712" stroke="url(#paint8_linear_22_29)"/>
<line x1="681.643" y1="463" x2="681.643" y2="-2.10712" stroke="url(#paint9_linear_22_29)"/>
<line x1="954.5" y1="463" x2="954.5" y2="-2.10712" stroke="url(#paint10_linear_22_29)"/>
</mask>
<g mask="url(#mask0_22_29)">
<ellipse cx="477.5" cy="-1.5" rx="469.5" ry="461.5" fill="url(#paint11_radial_22_29)"/>
</g>
<defs>
<linearGradient id="paint0_linear_22_29" x1="477.5" y1="188.56" x2="477.5" y2="189.56" gradientUnits="userSpaceOnUse">
<stop/>
<stop offset="1" stop-color="white"/>
</linearGradient>
<linearGradient id="paint1_linear_22_29" x1="477.5" y1="462.901" x2="477.5" y2="463.901" gradientUnits="userSpaceOnUse">
<stop/>
<stop offset="1" stop-color="white"/>
</linearGradient>
<linearGradient id="paint2_linear_22_29" x1="477.5" y1="325.73" x2="477.5" y2="326.73" gradientUnits="userSpaceOnUse">
<stop/>
<stop offset="1" stop-color="white"/>
</linearGradient>
<linearGradient id="paint3_linear_22_29" x1="477.5" y1="51.3894" x2="477.5" y2="52.3894" gradientUnits="userSpaceOnUse">
<stop/>
<stop offset="1" stop-color="white"/>
</linearGradient>
<linearGradient id="paint4_linear_22_29" x1="818.571" y1="230.446" x2="819.571" y2="230.446" gradientUnits="userSpaceOnUse">
<stop/>
<stop offset="1" stop-color="white"/>
</linearGradient>
<linearGradient id="paint5_linear_22_29" x1="409.286" y1="230.446" x2="410.286" y2="230.446" gradientUnits="userSpaceOnUse">
<stop/>
<stop offset="1" stop-color="white"/>
</linearGradient>
<linearGradient id="paint6_linear_22_29" x1="272.857" y1="230.446" x2="273.857" y2="230.446" gradientUnits="userSpaceOnUse">
<stop/>
<stop offset="1" stop-color="white"/>
</linearGradient>
<linearGradient id="paint7_linear_22_29" x1="545.714" y1="230.446" x2="546.714" y2="230.446" gradientUnits="userSpaceOnUse">
<stop/>
<stop offset="1" stop-color="white"/>
</linearGradient>
<linearGradient id="paint8_linear_22_29" x1="136.429" y1="230.446" x2="137.429" y2="230.446" gradientUnits="userSpaceOnUse">
<stop/>
<stop offset="1" stop-color="white"/>
</linearGradient>
<linearGradient id="paint9_linear_22_29" x1="682.143" y1="230.446" x2="683.143" y2="230.446" gradientUnits="userSpaceOnUse">
<stop/>
<stop offset="1" stop-color="white"/>
</linearGradient>
<linearGradient id="paint10_linear_22_29" x1="955" y1="230.446" x2="956" y2="230.446" gradientUnits="userSpaceOnUse">
<stop/>
<stop offset="1" stop-color="white"/>
</linearGradient>
<radialGradient id="paint11_radial_22_29" cx="0" cy="0" r="1" gradientUnits="userSpaceOnUse" gradientTransform="translate(477.5 -2.18573) rotate(90) scale(462.186 470.198)">
<stop stop-color="#999494"/>
<stop offset="1" stop-color="#FFF7F7"/>
</radialGradient>
</defs>
</svg>
