<svg width="35" height="35" viewBox="0 0 35 35" fill="none" xmlns="http://www.w3.org/2000/svg">
<g clip-path="url(#clip0_2_66)">
<path d="M1.44003 15.3063L5.87249 7.62742H17.4631L24.7787 20.3012L26.2991 17.6687L18.9866 4.99495H5.38071C4.74428 4.99495 4.15929 5.33245 3.84108 5.88208L0.433971 11.7835C0.11576 12.3331 0.11576 13.0113 0.433971 13.5609L1.44003 15.3063Z" fill="black"/>
<path d="M27.7166 15.3063L29.2369 12.6738L22.4355 0.890348C22.1173 0.337497 21.5291 0 20.8959 0H14.0817C13.4453 0 12.8603 0.337497 12.5421 0.887134L11.536 2.63247H20.4009L27.7166 15.3063Z" fill="black"/>
<path d="M8.5596 22.3294L15.8752 9.65562H12.8346L5.51892 22.3294L12.3235 34.1129C12.6417 34.6625 13.2267 35 13.8631 35H20.6773C21.3138 35 21.8988 34.6625 22.217 34.1129L23.223 32.3675H14.3581L8.56282 22.3294H8.5596Z" fill="black"/>
<path d="M10.0832 9.61062H7.0425L0.237926 21.3941C-0.0802852 21.9437 -0.0802852 22.6219 0.237926 23.1715L3.64503 29.0729C3.96324 29.6226 4.54824 29.9601 5.18466 29.9601H7.2L2.76754 22.2812L10.0832 9.61062Z" fill="black"/>
<path d="M25.743 22.6926H11.1117L12.632 25.3251H27.2633L34.0679 13.5416C34.3861 12.992 34.3861 12.3138 34.0679 11.7642L30.6608 5.8628C30.3426 5.31316 29.7576 4.97566 29.1212 4.97566H27.1058L31.5383 12.6545L25.743 22.6926Z" fill="black"/>
<path d="M33.0329 20.0537L28.6004 27.7326H13.9691L15.4895 30.365H29.0954C29.7318 30.365 30.3168 30.0276 30.635 29.4779L34.0421 23.5765C34.3603 23.0269 34.3603 22.3487 34.0421 21.7991L33.0361 20.0537H33.0329Z" fill="black"/>
</g>
<defs>
<clipPath id="clip0_2_66">
<rect width="34.3057" height="35" fill="white"/>
</clipPath>
</defs>
</svg>
